<mxfile host="app.diagrams.net" modified="2023-04-27T15:08:05.188Z" agent="Mozilla/5.0 (Windows NT 10.0; Win64; x64) AppleWebKit/537.36 (KHTML, like Gecko) Chrome/112.0.0.0 Safari/537.36" etag="JScPk5Us5rNt0-o70S9Z" version="21.2.3" type="github">
  <diagram id="R2lEEEUBdFMjLlhIrx00" name="Page-1">
    <mxGraphModel dx="2284" dy="768" grid="0" gridSize="5" guides="1" tooltips="1" connect="1" arrows="1" fold="1" page="1" pageScale="1" pageWidth="850" pageHeight="1100" math="0" shadow="0" extFonts="Permanent Marker^https://fonts.googleapis.com/css?family=Permanent+Marker">
      <root>
        <mxCell id="0" />
        <mxCell id="1" parent="0" />
        <mxCell id="C-vyLk0tnHw3VtMMgP7b-1" value="" style="edgeStyle=entityRelationEdgeStyle;endArrow=ERzeroToMany;startArrow=ERone;endFill=1;startFill=0;labelBackgroundColor=none;strokeColor=#6c8ebf;fontColor=default;rounded=0;movable=1;resizable=1;rotatable=1;deletable=1;editable=1;locked=0;connectable=1;fillColor=#dae8fc;" parent="1" source="h5dClmg_fXFYLUTbSnwF-75" target="h5dClmg_fXFYLUTbSnwF-143" edge="1">
          <mxGeometry width="100" height="100" relative="1" as="geometry">
            <mxPoint x="253" y="128" as="sourcePoint" />
            <mxPoint x="250" y="211" as="targetPoint" />
          </mxGeometry>
        </mxCell>
        <mxCell id="h5dClmg_fXFYLUTbSnwF-41" value="Appointment" style="shape=table;startSize=32;container=1;collapsible=0;childLayout=tableLayout;fixedRows=1;rowLines=0;fontStyle=0;strokeColor=#314354;fontSize=16;fillColor=#647687;fontColor=#ffffff;" vertex="1" parent="1">
          <mxGeometry x="208" y="73" width="320" height="263" as="geometry" />
        </mxCell>
        <mxCell id="h5dClmg_fXFYLUTbSnwF-42" value="" style="shape=tableRow;horizontal=0;startSize=0;swimlaneHead=0;swimlaneBody=0;top=0;left=0;bottom=0;right=0;collapsible=0;dropTarget=0;fillColor=#dae8fc;points=[[0,0.5],[1,0.5]];portConstraint=eastwest;strokeColor=#6c8ebf;fontSize=16;" vertex="1" parent="h5dClmg_fXFYLUTbSnwF-41">
          <mxGeometry y="32" width="320" height="47" as="geometry" />
        </mxCell>
        <mxCell id="h5dClmg_fXFYLUTbSnwF-43" value="PK" style="shape=partialRectangle;html=1;whiteSpace=wrap;connectable=0;fillColor=#dae8fc;top=0;left=0;bottom=0;right=0;overflow=hidden;pointerEvents=1;strokeColor=#6c8ebf;fontSize=16;" vertex="1" parent="h5dClmg_fXFYLUTbSnwF-42">
          <mxGeometry width="40" height="47" as="geometry">
            <mxRectangle width="40" height="47" as="alternateBounds" />
          </mxGeometry>
        </mxCell>
        <mxCell id="h5dClmg_fXFYLUTbSnwF-44" value="appointment_id" style="shape=partialRectangle;html=1;whiteSpace=wrap;connectable=0;fillColor=#dae8fc;top=0;left=0;bottom=0;right=0;align=left;spacingLeft=6;overflow=hidden;strokeColor=#6c8ebf;fontSize=16;" vertex="1" parent="h5dClmg_fXFYLUTbSnwF-42">
          <mxGeometry x="40" width="140" height="47" as="geometry">
            <mxRectangle width="140" height="47" as="alternateBounds" />
          </mxGeometry>
        </mxCell>
        <mxCell id="h5dClmg_fXFYLUTbSnwF-61" value="integer" style="shape=partialRectangle;html=1;whiteSpace=wrap;connectable=0;fillColor=#dae8fc;top=0;left=0;bottom=0;right=0;align=left;spacingLeft=6;overflow=hidden;strokeColor=#6c8ebf;fontSize=16;" vertex="1" parent="h5dClmg_fXFYLUTbSnwF-42">
          <mxGeometry x="180" width="140" height="47" as="geometry">
            <mxRectangle width="140" height="47" as="alternateBounds" />
          </mxGeometry>
        </mxCell>
        <mxCell id="h5dClmg_fXFYLUTbSnwF-155" style="shape=tableRow;horizontal=0;startSize=0;swimlaneHead=0;swimlaneBody=0;top=0;left=0;bottom=0;right=0;collapsible=0;dropTarget=0;fillColor=#dae8fc;points=[[0,0.5],[1,0.5]];portConstraint=eastwest;strokeColor=#6c8ebf;fontSize=16;" vertex="1" parent="h5dClmg_fXFYLUTbSnwF-41">
          <mxGeometry y="79" width="320" height="47" as="geometry" />
        </mxCell>
        <mxCell id="h5dClmg_fXFYLUTbSnwF-156" style="shape=partialRectangle;html=1;whiteSpace=wrap;connectable=0;fillColor=#dae8fc;top=0;left=0;bottom=0;right=0;overflow=hidden;pointerEvents=1;strokeColor=#6c8ebf;fontSize=16;" vertex="1" parent="h5dClmg_fXFYLUTbSnwF-155">
          <mxGeometry width="40" height="47" as="geometry">
            <mxRectangle width="40" height="47" as="alternateBounds" />
          </mxGeometry>
        </mxCell>
        <mxCell id="h5dClmg_fXFYLUTbSnwF-157" value="date" style="shape=partialRectangle;html=1;whiteSpace=wrap;connectable=0;fillColor=#dae8fc;top=0;left=0;bottom=0;right=0;align=left;spacingLeft=6;overflow=hidden;strokeColor=#6c8ebf;fontSize=16;" vertex="1" parent="h5dClmg_fXFYLUTbSnwF-155">
          <mxGeometry x="40" width="140" height="47" as="geometry">
            <mxRectangle width="140" height="47" as="alternateBounds" />
          </mxGeometry>
        </mxCell>
        <mxCell id="h5dClmg_fXFYLUTbSnwF-158" value="datetime" style="shape=partialRectangle;html=1;whiteSpace=wrap;connectable=0;fillColor=#dae8fc;top=0;left=0;bottom=0;right=0;align=left;spacingLeft=6;overflow=hidden;strokeColor=#6c8ebf;fontSize=16;" vertex="1" parent="h5dClmg_fXFYLUTbSnwF-155">
          <mxGeometry x="180" width="140" height="47" as="geometry">
            <mxRectangle width="140" height="47" as="alternateBounds" />
          </mxGeometry>
        </mxCell>
        <mxCell id="h5dClmg_fXFYLUTbSnwF-143" style="shape=tableRow;horizontal=0;startSize=0;swimlaneHead=0;swimlaneBody=0;top=0;left=0;bottom=0;right=0;collapsible=0;dropTarget=0;fillColor=#dae8fc;points=[[0,0.5],[1,0.5]];portConstraint=eastwest;strokeColor=#6c8ebf;fontSize=16;" vertex="1" parent="h5dClmg_fXFYLUTbSnwF-41">
          <mxGeometry y="126" width="320" height="47" as="geometry" />
        </mxCell>
        <mxCell id="h5dClmg_fXFYLUTbSnwF-144" value="FK1" style="shape=partialRectangle;html=1;whiteSpace=wrap;connectable=0;fillColor=#dae8fc;top=0;left=0;bottom=0;right=0;overflow=hidden;pointerEvents=1;strokeColor=#6c8ebf;fontSize=16;" vertex="1" parent="h5dClmg_fXFYLUTbSnwF-143">
          <mxGeometry width="40" height="47" as="geometry">
            <mxRectangle width="40" height="47" as="alternateBounds" />
          </mxGeometry>
        </mxCell>
        <mxCell id="h5dClmg_fXFYLUTbSnwF-145" value="doctor_id" style="shape=partialRectangle;html=1;whiteSpace=wrap;connectable=0;fillColor=#dae8fc;top=0;left=0;bottom=0;right=0;align=left;spacingLeft=6;overflow=hidden;strokeColor=#6c8ebf;fontSize=16;" vertex="1" parent="h5dClmg_fXFYLUTbSnwF-143">
          <mxGeometry x="40" width="140" height="47" as="geometry">
            <mxRectangle width="140" height="47" as="alternateBounds" />
          </mxGeometry>
        </mxCell>
        <mxCell id="h5dClmg_fXFYLUTbSnwF-146" value="integer" style="shape=partialRectangle;html=1;whiteSpace=wrap;connectable=0;fillColor=#dae8fc;top=0;left=0;bottom=0;right=0;align=left;spacingLeft=6;overflow=hidden;strokeColor=#6c8ebf;fontSize=16;" vertex="1" parent="h5dClmg_fXFYLUTbSnwF-143">
          <mxGeometry x="180" width="140" height="47" as="geometry">
            <mxRectangle width="140" height="47" as="alternateBounds" />
          </mxGeometry>
        </mxCell>
        <mxCell id="h5dClmg_fXFYLUTbSnwF-147" style="shape=tableRow;horizontal=0;startSize=0;swimlaneHead=0;swimlaneBody=0;top=0;left=0;bottom=0;right=0;collapsible=0;dropTarget=0;fillColor=#dae8fc;points=[[0,0.5],[1,0.5]];portConstraint=eastwest;strokeColor=#6c8ebf;fontSize=16;" vertex="1" parent="h5dClmg_fXFYLUTbSnwF-41">
          <mxGeometry y="173" width="320" height="47" as="geometry" />
        </mxCell>
        <mxCell id="h5dClmg_fXFYLUTbSnwF-148" value="FK2" style="shape=partialRectangle;html=1;whiteSpace=wrap;connectable=0;fillColor=#dae8fc;top=0;left=0;bottom=0;right=0;overflow=hidden;pointerEvents=1;strokeColor=#6c8ebf;fontSize=16;" vertex="1" parent="h5dClmg_fXFYLUTbSnwF-147">
          <mxGeometry width="40" height="47" as="geometry">
            <mxRectangle width="40" height="47" as="alternateBounds" />
          </mxGeometry>
        </mxCell>
        <mxCell id="h5dClmg_fXFYLUTbSnwF-149" value="patient_id" style="shape=partialRectangle;html=1;whiteSpace=wrap;connectable=0;fillColor=#dae8fc;top=0;left=0;bottom=0;right=0;align=left;spacingLeft=6;overflow=hidden;strokeColor=#6c8ebf;fontSize=16;" vertex="1" parent="h5dClmg_fXFYLUTbSnwF-147">
          <mxGeometry x="40" width="140" height="47" as="geometry">
            <mxRectangle width="140" height="47" as="alternateBounds" />
          </mxGeometry>
        </mxCell>
        <mxCell id="h5dClmg_fXFYLUTbSnwF-150" value="integer" style="shape=partialRectangle;html=1;whiteSpace=wrap;connectable=0;fillColor=#dae8fc;top=0;left=0;bottom=0;right=0;align=left;spacingLeft=6;overflow=hidden;strokeColor=#6c8ebf;fontSize=16;" vertex="1" parent="h5dClmg_fXFYLUTbSnwF-147">
          <mxGeometry x="180" width="140" height="47" as="geometry">
            <mxRectangle width="140" height="47" as="alternateBounds" />
          </mxGeometry>
        </mxCell>
        <mxCell id="h5dClmg_fXFYLUTbSnwF-151" style="shape=tableRow;horizontal=0;startSize=0;swimlaneHead=0;swimlaneBody=0;top=0;left=0;bottom=0;right=0;collapsible=0;dropTarget=0;fillColor=#dae8fc;points=[[0,0.5],[1,0.5]];portConstraint=eastwest;strokeColor=#6c8ebf;fontSize=16;" vertex="1" parent="h5dClmg_fXFYLUTbSnwF-41">
          <mxGeometry y="220" width="320" height="43" as="geometry" />
        </mxCell>
        <mxCell id="h5dClmg_fXFYLUTbSnwF-152" value="FK3" style="shape=partialRectangle;html=1;whiteSpace=wrap;connectable=0;fillColor=#dae8fc;top=0;left=0;bottom=0;right=0;overflow=hidden;pointerEvents=1;strokeColor=#6c8ebf;fontSize=16;" vertex="1" parent="h5dClmg_fXFYLUTbSnwF-151">
          <mxGeometry width="40" height="43" as="geometry">
            <mxRectangle width="40" height="43" as="alternateBounds" />
          </mxGeometry>
        </mxCell>
        <mxCell id="h5dClmg_fXFYLUTbSnwF-153" value="city_id" style="shape=partialRectangle;html=1;whiteSpace=wrap;connectable=0;fillColor=#dae8fc;top=0;left=0;bottom=0;right=0;align=left;spacingLeft=6;overflow=hidden;strokeColor=#6c8ebf;fontSize=16;" vertex="1" parent="h5dClmg_fXFYLUTbSnwF-151">
          <mxGeometry x="40" width="140" height="43" as="geometry">
            <mxRectangle width="140" height="43" as="alternateBounds" />
          </mxGeometry>
        </mxCell>
        <mxCell id="h5dClmg_fXFYLUTbSnwF-154" style="shape=partialRectangle;html=1;whiteSpace=wrap;connectable=0;fillColor=#dae8fc;top=0;left=0;bottom=0;right=0;align=left;spacingLeft=6;overflow=hidden;strokeColor=#6c8ebf;fontSize=16;" vertex="1" parent="h5dClmg_fXFYLUTbSnwF-151">
          <mxGeometry x="180" width="140" height="43" as="geometry">
            <mxRectangle width="140" height="43" as="alternateBounds" />
          </mxGeometry>
        </mxCell>
        <mxCell id="h5dClmg_fXFYLUTbSnwF-71" value="" style="edgeStyle=entityRelationEdgeStyle;fontSize=12;html=1;endArrow=ERmany;startArrow=ERmany;rounded=0;entryX=0;entryY=0.5;entryDx=0;entryDy=0;fillColor=#dae8fc;strokeColor=#6c8ebf;" edge="1" parent="1" source="h5dClmg_fXFYLUTbSnwF-94" target="h5dClmg_fXFYLUTbSnwF-75">
          <mxGeometry width="100" height="100" relative="1" as="geometry">
            <mxPoint x="-35" y="431" as="sourcePoint" />
            <mxPoint x="65" y="331" as="targetPoint" />
          </mxGeometry>
        </mxCell>
        <mxCell id="h5dClmg_fXFYLUTbSnwF-74" value="Doctor" style="shape=table;startSize=30;container=1;collapsible=1;childLayout=tableLayout;fixedRows=1;rowLines=0;fontStyle=1;align=center;resizeLast=1;html=1;whiteSpace=wrap;fillColor=#76608a;strokeColor=#432D57;fontColor=#ffffff;" vertex="1" parent="1">
          <mxGeometry x="-165" y="40" width="300" height="210" as="geometry">
            <mxRectangle x="-80" y="38" width="74" height="30" as="alternateBounds" />
          </mxGeometry>
        </mxCell>
        <mxCell id="h5dClmg_fXFYLUTbSnwF-75" value="" style="shape=tableRow;horizontal=0;startSize=0;swimlaneHead=0;swimlaneBody=0;fillColor=#dae8fc;collapsible=0;dropTarget=0;points=[[0,0.5],[1,0.5]];portConstraint=eastwest;top=0;left=0;right=0;bottom=0;html=1;strokeColor=#6c8ebf;" vertex="1" parent="h5dClmg_fXFYLUTbSnwF-74">
          <mxGeometry y="30" width="300" height="30" as="geometry" />
        </mxCell>
        <mxCell id="h5dClmg_fXFYLUTbSnwF-76" value="PK,FK1" style="shape=partialRectangle;connectable=0;fillColor=#dae8fc;top=0;left=0;bottom=0;right=0;fontStyle=1;overflow=hidden;html=1;whiteSpace=wrap;strokeColor=#6c8ebf;" vertex="1" parent="h5dClmg_fXFYLUTbSnwF-75">
          <mxGeometry width="60" height="30" as="geometry">
            <mxRectangle width="60" height="30" as="alternateBounds" />
          </mxGeometry>
        </mxCell>
        <mxCell id="h5dClmg_fXFYLUTbSnwF-77" value="doctor_id" style="shape=partialRectangle;connectable=0;fillColor=#dae8fc;top=0;left=0;bottom=0;right=0;align=left;spacingLeft=6;fontStyle=5;overflow=hidden;html=1;whiteSpace=wrap;strokeColor=#6c8ebf;" vertex="1" parent="h5dClmg_fXFYLUTbSnwF-75">
          <mxGeometry x="60" width="120" height="30" as="geometry">
            <mxRectangle width="120" height="30" as="alternateBounds" />
          </mxGeometry>
        </mxCell>
        <mxCell id="h5dClmg_fXFYLUTbSnwF-169" value="integer" style="shape=partialRectangle;connectable=0;fillColor=#dae8fc;top=0;left=0;bottom=0;right=0;align=left;spacingLeft=6;fontStyle=5;overflow=hidden;html=1;whiteSpace=wrap;strokeColor=#6c8ebf;" vertex="1" parent="h5dClmg_fXFYLUTbSnwF-75">
          <mxGeometry x="180" width="120" height="30" as="geometry">
            <mxRectangle width="120" height="30" as="alternateBounds" />
          </mxGeometry>
        </mxCell>
        <mxCell id="h5dClmg_fXFYLUTbSnwF-78" value="" style="shape=tableRow;horizontal=0;startSize=0;swimlaneHead=0;swimlaneBody=0;fillColor=#dae8fc;collapsible=0;dropTarget=0;points=[[0,0.5],[1,0.5]];portConstraint=eastwest;top=0;left=0;right=0;bottom=1;html=1;strokeColor=#6c8ebf;" vertex="1" parent="h5dClmg_fXFYLUTbSnwF-74">
          <mxGeometry y="60" width="300" height="30" as="geometry" />
        </mxCell>
        <mxCell id="h5dClmg_fXFYLUTbSnwF-79" value="" style="shape=partialRectangle;connectable=0;fillColor=#dae8fc;top=0;left=0;bottom=0;right=0;fontStyle=1;overflow=hidden;html=1;whiteSpace=wrap;strokeColor=#6c8ebf;" vertex="1" parent="h5dClmg_fXFYLUTbSnwF-78">
          <mxGeometry width="60" height="30" as="geometry">
            <mxRectangle width="60" height="30" as="alternateBounds" />
          </mxGeometry>
        </mxCell>
        <mxCell id="h5dClmg_fXFYLUTbSnwF-80" value="" style="shape=partialRectangle;connectable=0;fillColor=#dae8fc;top=0;left=0;bottom=0;right=0;align=left;spacingLeft=6;fontStyle=5;overflow=hidden;html=1;whiteSpace=wrap;strokeColor=#6c8ebf;" vertex="1" parent="h5dClmg_fXFYLUTbSnwF-78">
          <mxGeometry x="60" width="120" height="30" as="geometry">
            <mxRectangle width="120" height="30" as="alternateBounds" />
          </mxGeometry>
        </mxCell>
        <mxCell id="h5dClmg_fXFYLUTbSnwF-170" style="shape=partialRectangle;connectable=0;fillColor=#dae8fc;top=0;left=0;bottom=0;right=0;align=left;spacingLeft=6;fontStyle=5;overflow=hidden;html=1;whiteSpace=wrap;strokeColor=#6c8ebf;" vertex="1" parent="h5dClmg_fXFYLUTbSnwF-78">
          <mxGeometry x="180" width="120" height="30" as="geometry">
            <mxRectangle width="120" height="30" as="alternateBounds" />
          </mxGeometry>
        </mxCell>
        <mxCell id="h5dClmg_fXFYLUTbSnwF-81" value="" style="shape=tableRow;horizontal=0;startSize=0;swimlaneHead=0;swimlaneBody=0;fillColor=#dae8fc;collapsible=0;dropTarget=0;points=[[0,0.5],[1,0.5]];portConstraint=eastwest;top=0;left=0;right=0;bottom=0;html=1;strokeColor=#6c8ebf;" vertex="1" parent="h5dClmg_fXFYLUTbSnwF-74">
          <mxGeometry y="90" width="300" height="30" as="geometry" />
        </mxCell>
        <mxCell id="h5dClmg_fXFYLUTbSnwF-82" value="" style="shape=partialRectangle;connectable=0;fillColor=#dae8fc;top=0;left=0;bottom=0;right=0;editable=1;overflow=hidden;html=1;whiteSpace=wrap;strokeColor=#6c8ebf;" vertex="1" parent="h5dClmg_fXFYLUTbSnwF-81">
          <mxGeometry width="60" height="30" as="geometry">
            <mxRectangle width="60" height="30" as="alternateBounds" />
          </mxGeometry>
        </mxCell>
        <mxCell id="h5dClmg_fXFYLUTbSnwF-83" value="first_name" style="shape=partialRectangle;connectable=0;fillColor=#dae8fc;top=0;left=0;bottom=0;right=0;align=left;spacingLeft=6;overflow=hidden;html=1;whiteSpace=wrap;strokeColor=#6c8ebf;" vertex="1" parent="h5dClmg_fXFYLUTbSnwF-81">
          <mxGeometry x="60" width="120" height="30" as="geometry">
            <mxRectangle width="120" height="30" as="alternateBounds" />
          </mxGeometry>
        </mxCell>
        <mxCell id="h5dClmg_fXFYLUTbSnwF-171" value="string" style="shape=partialRectangle;connectable=0;fillColor=#dae8fc;top=0;left=0;bottom=0;right=0;align=left;spacingLeft=6;overflow=hidden;html=1;whiteSpace=wrap;strokeColor=#6c8ebf;" vertex="1" parent="h5dClmg_fXFYLUTbSnwF-81">
          <mxGeometry x="180" width="120" height="30" as="geometry">
            <mxRectangle width="120" height="30" as="alternateBounds" />
          </mxGeometry>
        </mxCell>
        <mxCell id="h5dClmg_fXFYLUTbSnwF-84" value="" style="shape=tableRow;horizontal=0;startSize=0;swimlaneHead=0;swimlaneBody=0;fillColor=#dae8fc;collapsible=0;dropTarget=0;points=[[0,0.5],[1,0.5]];portConstraint=eastwest;top=0;left=0;right=0;bottom=0;html=1;strokeColor=#6c8ebf;" vertex="1" parent="h5dClmg_fXFYLUTbSnwF-74">
          <mxGeometry y="120" width="300" height="30" as="geometry" />
        </mxCell>
        <mxCell id="h5dClmg_fXFYLUTbSnwF-85" value="" style="shape=partialRectangle;connectable=0;fillColor=#dae8fc;top=0;left=0;bottom=0;right=0;editable=1;overflow=hidden;html=1;whiteSpace=wrap;strokeColor=#6c8ebf;" vertex="1" parent="h5dClmg_fXFYLUTbSnwF-84">
          <mxGeometry width="60" height="30" as="geometry">
            <mxRectangle width="60" height="30" as="alternateBounds" />
          </mxGeometry>
        </mxCell>
        <mxCell id="h5dClmg_fXFYLUTbSnwF-86" value="last_name&amp;nbsp;" style="shape=partialRectangle;connectable=0;fillColor=#dae8fc;top=0;left=0;bottom=0;right=0;align=left;spacingLeft=6;overflow=hidden;html=1;whiteSpace=wrap;strokeColor=#6c8ebf;" vertex="1" parent="h5dClmg_fXFYLUTbSnwF-84">
          <mxGeometry x="60" width="120" height="30" as="geometry">
            <mxRectangle width="120" height="30" as="alternateBounds" />
          </mxGeometry>
        </mxCell>
        <mxCell id="h5dClmg_fXFYLUTbSnwF-172" value="string" style="shape=partialRectangle;connectable=0;fillColor=#dae8fc;top=0;left=0;bottom=0;right=0;align=left;spacingLeft=6;overflow=hidden;html=1;whiteSpace=wrap;strokeColor=#6c8ebf;" vertex="1" parent="h5dClmg_fXFYLUTbSnwF-84">
          <mxGeometry x="180" width="120" height="30" as="geometry">
            <mxRectangle width="120" height="30" as="alternateBounds" />
          </mxGeometry>
        </mxCell>
        <mxCell id="h5dClmg_fXFYLUTbSnwF-90" style="shape=tableRow;horizontal=0;startSize=0;swimlaneHead=0;swimlaneBody=0;fillColor=#dae8fc;collapsible=0;dropTarget=0;points=[[0,0.5],[1,0.5]];portConstraint=eastwest;top=0;left=0;right=0;bottom=0;html=1;strokeColor=#6c8ebf;" vertex="1" parent="h5dClmg_fXFYLUTbSnwF-74">
          <mxGeometry y="150" width="300" height="30" as="geometry" />
        </mxCell>
        <mxCell id="h5dClmg_fXFYLUTbSnwF-91" style="shape=partialRectangle;connectable=0;fillColor=#dae8fc;top=0;left=0;bottom=0;right=0;editable=1;overflow=hidden;html=1;whiteSpace=wrap;strokeColor=#6c8ebf;" vertex="1" parent="h5dClmg_fXFYLUTbSnwF-90">
          <mxGeometry width="60" height="30" as="geometry">
            <mxRectangle width="60" height="30" as="alternateBounds" />
          </mxGeometry>
        </mxCell>
        <mxCell id="h5dClmg_fXFYLUTbSnwF-92" value="specialty&amp;nbsp;" style="shape=partialRectangle;connectable=0;fillColor=#dae8fc;top=0;left=0;bottom=0;right=0;align=left;spacingLeft=6;overflow=hidden;html=1;whiteSpace=wrap;strokeColor=#6c8ebf;" vertex="1" parent="h5dClmg_fXFYLUTbSnwF-90">
          <mxGeometry x="60" width="120" height="30" as="geometry">
            <mxRectangle width="120" height="30" as="alternateBounds" />
          </mxGeometry>
        </mxCell>
        <mxCell id="h5dClmg_fXFYLUTbSnwF-173" value="string" style="shape=partialRectangle;connectable=0;fillColor=#dae8fc;top=0;left=0;bottom=0;right=0;align=left;spacingLeft=6;overflow=hidden;html=1;whiteSpace=wrap;strokeColor=#6c8ebf;" vertex="1" parent="h5dClmg_fXFYLUTbSnwF-90">
          <mxGeometry x="180" width="120" height="30" as="geometry">
            <mxRectangle width="120" height="30" as="alternateBounds" />
          </mxGeometry>
        </mxCell>
        <mxCell id="h5dClmg_fXFYLUTbSnwF-87" style="shape=tableRow;horizontal=0;startSize=0;swimlaneHead=0;swimlaneBody=0;fillColor=#dae8fc;collapsible=0;dropTarget=0;points=[[0,0.5],[1,0.5]];portConstraint=eastwest;top=0;left=0;right=0;bottom=0;html=1;strokeColor=#6c8ebf;" vertex="1" parent="h5dClmg_fXFYLUTbSnwF-74">
          <mxGeometry y="180" width="300" height="30" as="geometry" />
        </mxCell>
        <mxCell id="h5dClmg_fXFYLUTbSnwF-88" style="shape=partialRectangle;connectable=0;fillColor=#dae8fc;top=0;left=0;bottom=0;right=0;editable=1;overflow=hidden;html=1;whiteSpace=wrap;strokeColor=#6c8ebf;" vertex="1" parent="h5dClmg_fXFYLUTbSnwF-87">
          <mxGeometry width="60" height="30" as="geometry">
            <mxRectangle width="60" height="30" as="alternateBounds" />
          </mxGeometry>
        </mxCell>
        <mxCell id="h5dClmg_fXFYLUTbSnwF-89" value="zip_code&amp;nbsp;" style="shape=partialRectangle;connectable=0;fillColor=#dae8fc;top=0;left=0;bottom=0;right=0;align=left;spacingLeft=6;overflow=hidden;html=1;whiteSpace=wrap;strokeColor=#6c8ebf;" vertex="1" parent="h5dClmg_fXFYLUTbSnwF-87">
          <mxGeometry x="60" width="120" height="30" as="geometry">
            <mxRectangle width="120" height="30" as="alternateBounds" />
          </mxGeometry>
        </mxCell>
        <mxCell id="h5dClmg_fXFYLUTbSnwF-174" value="string" style="shape=partialRectangle;connectable=0;fillColor=#dae8fc;top=0;left=0;bottom=0;right=0;align=left;spacingLeft=6;overflow=hidden;html=1;whiteSpace=wrap;strokeColor=#6c8ebf;" vertex="1" parent="h5dClmg_fXFYLUTbSnwF-87">
          <mxGeometry x="180" width="120" height="30" as="geometry">
            <mxRectangle width="120" height="30" as="alternateBounds" />
          </mxGeometry>
        </mxCell>
        <mxCell id="h5dClmg_fXFYLUTbSnwF-93" value="specialty" style="shape=table;startSize=30;container=1;collapsible=1;childLayout=tableLayout;fixedRows=1;rowLines=0;fontStyle=1;align=center;resizeLast=1;html=1;whiteSpace=wrap;fillColor=#f0a30a;strokeColor=#BD7000;fontColor=#000000;" vertex="1" parent="1">
          <mxGeometry x="-448" y="40" width="240" height="90" as="geometry" />
        </mxCell>
        <mxCell id="h5dClmg_fXFYLUTbSnwF-94" value="" style="shape=tableRow;horizontal=0;startSize=0;swimlaneHead=0;swimlaneBody=0;fillColor=#dae8fc;collapsible=0;dropTarget=0;points=[[0,0.5],[1,0.5]];portConstraint=eastwest;top=0;left=0;right=0;bottom=0;html=1;strokeColor=#6c8ebf;" vertex="1" parent="h5dClmg_fXFYLUTbSnwF-93">
          <mxGeometry y="30" width="240" height="30" as="geometry" />
        </mxCell>
        <mxCell id="h5dClmg_fXFYLUTbSnwF-95" value="PK,FK1" style="shape=partialRectangle;connectable=0;fillColor=#dae8fc;top=0;left=0;bottom=0;right=0;fontStyle=1;overflow=hidden;html=1;whiteSpace=wrap;strokeColor=#6c8ebf;" vertex="1" parent="h5dClmg_fXFYLUTbSnwF-94">
          <mxGeometry width="60" height="30" as="geometry">
            <mxRectangle width="60" height="30" as="alternateBounds" />
          </mxGeometry>
        </mxCell>
        <mxCell id="h5dClmg_fXFYLUTbSnwF-96" value="Id" style="shape=partialRectangle;connectable=0;fillColor=#dae8fc;top=0;left=0;bottom=0;right=0;align=left;spacingLeft=6;fontStyle=5;overflow=hidden;html=1;whiteSpace=wrap;strokeColor=#6c8ebf;" vertex="1" parent="h5dClmg_fXFYLUTbSnwF-94">
          <mxGeometry x="60" width="77.75" height="30" as="geometry">
            <mxRectangle width="77.75" height="30" as="alternateBounds" />
          </mxGeometry>
        </mxCell>
        <mxCell id="h5dClmg_fXFYLUTbSnwF-167" value="integer" style="shape=partialRectangle;connectable=0;fillColor=#dae8fc;top=0;left=0;bottom=0;right=0;align=left;spacingLeft=6;fontStyle=5;overflow=hidden;html=1;whiteSpace=wrap;strokeColor=#6c8ebf;" vertex="1" parent="h5dClmg_fXFYLUTbSnwF-94">
          <mxGeometry x="137.75" width="102.25" height="30" as="geometry">
            <mxRectangle width="102.25" height="30" as="alternateBounds" />
          </mxGeometry>
        </mxCell>
        <mxCell id="h5dClmg_fXFYLUTbSnwF-100" value="" style="shape=tableRow;horizontal=0;startSize=0;swimlaneHead=0;swimlaneBody=0;fillColor=#dae8fc;collapsible=0;dropTarget=0;points=[[0,0.5],[1,0.5]];portConstraint=eastwest;top=0;left=0;right=0;bottom=0;html=1;strokeColor=#6c8ebf;" vertex="1" parent="h5dClmg_fXFYLUTbSnwF-93">
          <mxGeometry y="60" width="240" height="30" as="geometry" />
        </mxCell>
        <mxCell id="h5dClmg_fXFYLUTbSnwF-101" value="" style="shape=partialRectangle;connectable=0;fillColor=#dae8fc;top=0;left=0;bottom=0;right=0;editable=1;overflow=hidden;html=1;whiteSpace=wrap;strokeColor=#6c8ebf;" vertex="1" parent="h5dClmg_fXFYLUTbSnwF-100">
          <mxGeometry width="60" height="30" as="geometry">
            <mxRectangle width="60" height="30" as="alternateBounds" />
          </mxGeometry>
        </mxCell>
        <mxCell id="h5dClmg_fXFYLUTbSnwF-102" value="name" style="shape=partialRectangle;connectable=0;fillColor=#dae8fc;top=0;left=0;bottom=0;right=0;align=left;spacingLeft=6;overflow=hidden;html=1;whiteSpace=wrap;strokeColor=#6c8ebf;" vertex="1" parent="h5dClmg_fXFYLUTbSnwF-100">
          <mxGeometry x="60" width="77.75" height="30" as="geometry">
            <mxRectangle width="77.75" height="30" as="alternateBounds" />
          </mxGeometry>
        </mxCell>
        <mxCell id="h5dClmg_fXFYLUTbSnwF-168" value="string" style="shape=partialRectangle;connectable=0;fillColor=#dae8fc;top=0;left=0;bottom=0;right=0;align=left;spacingLeft=6;overflow=hidden;html=1;whiteSpace=wrap;strokeColor=#6c8ebf;" vertex="1" parent="h5dClmg_fXFYLUTbSnwF-100">
          <mxGeometry x="137.75" width="102.25" height="30" as="geometry">
            <mxRectangle width="102.25" height="30" as="alternateBounds" />
          </mxGeometry>
        </mxCell>
        <mxCell id="h5dClmg_fXFYLUTbSnwF-106" value="city" style="shape=table;startSize=32;container=1;collapsible=1;childLayout=tableLayout;fixedRows=1;rowLines=0;fontStyle=1;align=center;resizeLast=1;html=1;whiteSpace=wrap;fillColor=#6d8764;strokeColor=#3A5431;fontColor=#ffffff;" vertex="1" parent="1">
          <mxGeometry x="-575" y="237" width="300" height="92" as="geometry" />
        </mxCell>
        <mxCell id="h5dClmg_fXFYLUTbSnwF-107" value="" style="shape=tableRow;horizontal=0;startSize=0;swimlaneHead=0;swimlaneBody=0;fillColor=#dae8fc;collapsible=0;dropTarget=0;points=[[0,0.5],[1,0.5]];portConstraint=eastwest;top=0;left=0;right=0;bottom=0;html=1;strokeColor=#6c8ebf;" vertex="1" parent="h5dClmg_fXFYLUTbSnwF-106">
          <mxGeometry y="32" width="300" height="30" as="geometry" />
        </mxCell>
        <mxCell id="h5dClmg_fXFYLUTbSnwF-108" value="PK,FK" style="shape=partialRectangle;connectable=0;fillColor=#dae8fc;top=0;left=0;bottom=0;right=0;fontStyle=1;overflow=hidden;html=1;whiteSpace=wrap;strokeColor=#6c8ebf;" vertex="1" parent="h5dClmg_fXFYLUTbSnwF-107">
          <mxGeometry width="60" height="30" as="geometry">
            <mxRectangle width="60" height="30" as="alternateBounds" />
          </mxGeometry>
        </mxCell>
        <mxCell id="h5dClmg_fXFYLUTbSnwF-109" value="city_id" style="shape=partialRectangle;connectable=0;fillColor=#dae8fc;top=0;left=0;bottom=0;right=0;align=left;spacingLeft=6;fontStyle=5;overflow=hidden;html=1;whiteSpace=wrap;strokeColor=#6c8ebf;" vertex="1" parent="h5dClmg_fXFYLUTbSnwF-107">
          <mxGeometry x="60" width="120" height="30" as="geometry">
            <mxRectangle width="120" height="30" as="alternateBounds" />
          </mxGeometry>
        </mxCell>
        <mxCell id="h5dClmg_fXFYLUTbSnwF-164" value="integer" style="shape=partialRectangle;connectable=0;fillColor=#dae8fc;top=0;left=0;bottom=0;right=0;align=left;spacingLeft=6;fontStyle=5;overflow=hidden;html=1;whiteSpace=wrap;strokeColor=#6c8ebf;" vertex="1" parent="h5dClmg_fXFYLUTbSnwF-107">
          <mxGeometry x="180" width="120" height="30" as="geometry">
            <mxRectangle width="120" height="30" as="alternateBounds" />
          </mxGeometry>
        </mxCell>
        <mxCell id="h5dClmg_fXFYLUTbSnwF-113" value="" style="shape=tableRow;horizontal=0;startSize=0;swimlaneHead=0;swimlaneBody=0;fillColor=#dae8fc;collapsible=0;dropTarget=0;points=[[0,0.5],[1,0.5]];portConstraint=eastwest;top=0;left=0;right=0;bottom=0;html=1;strokeColor=#6c8ebf;" vertex="1" parent="h5dClmg_fXFYLUTbSnwF-106">
          <mxGeometry y="62" width="300" height="30" as="geometry" />
        </mxCell>
        <mxCell id="h5dClmg_fXFYLUTbSnwF-114" value="" style="shape=partialRectangle;connectable=0;fillColor=#dae8fc;top=0;left=0;bottom=0;right=0;editable=1;overflow=hidden;html=1;whiteSpace=wrap;strokeColor=#6c8ebf;" vertex="1" parent="h5dClmg_fXFYLUTbSnwF-113">
          <mxGeometry width="60" height="30" as="geometry">
            <mxRectangle width="60" height="30" as="alternateBounds" />
          </mxGeometry>
        </mxCell>
        <mxCell id="h5dClmg_fXFYLUTbSnwF-115" value="name" style="shape=partialRectangle;connectable=0;fillColor=#dae8fc;top=0;left=0;bottom=0;right=0;align=left;spacingLeft=6;overflow=hidden;html=1;whiteSpace=wrap;strokeColor=#6c8ebf;" vertex="1" parent="h5dClmg_fXFYLUTbSnwF-113">
          <mxGeometry x="60" width="120" height="30" as="geometry">
            <mxRectangle width="120" height="30" as="alternateBounds" />
          </mxGeometry>
        </mxCell>
        <mxCell id="h5dClmg_fXFYLUTbSnwF-165" value="string" style="shape=partialRectangle;connectable=0;fillColor=#dae8fc;top=0;left=0;bottom=0;right=0;align=left;spacingLeft=6;overflow=hidden;html=1;whiteSpace=wrap;strokeColor=#6c8ebf;" vertex="1" parent="h5dClmg_fXFYLUTbSnwF-113">
          <mxGeometry x="180" width="120" height="30" as="geometry">
            <mxRectangle width="120" height="30" as="alternateBounds" />
          </mxGeometry>
        </mxCell>
        <mxCell id="h5dClmg_fXFYLUTbSnwF-119" value="" style="edgeStyle=entityRelationEdgeStyle;fontSize=12;html=1;endArrow=ERoneToMany;startArrow=ERmandOne;rounded=0;entryX=0;entryY=0.5;entryDx=0;entryDy=0;fillColor=#dae8fc;strokeColor=#6c8ebf;" edge="1" parent="1" source="h5dClmg_fXFYLUTbSnwF-107" target="h5dClmg_fXFYLUTbSnwF-75">
          <mxGeometry width="100" height="100" relative="1" as="geometry">
            <mxPoint x="-83" y="364" as="sourcePoint" />
            <mxPoint x="-76" y="113" as="targetPoint" />
          </mxGeometry>
        </mxCell>
        <mxCell id="h5dClmg_fXFYLUTbSnwF-120" value="" style="edgeStyle=entityRelationEdgeStyle;fontSize=12;html=1;endArrow=ERoneToMany;startArrow=ERmandOne;rounded=0;entryX=0;entryY=0.5;entryDx=0;entryDy=0;fillColor=#dae8fc;strokeColor=#6c8ebf;" edge="1" parent="1" source="h5dClmg_fXFYLUTbSnwF-107" target="h5dClmg_fXFYLUTbSnwF-151">
          <mxGeometry width="100" height="100" relative="1" as="geometry">
            <mxPoint x="-82" y="583" as="sourcePoint" />
            <mxPoint x="18" y="483" as="targetPoint" />
          </mxGeometry>
        </mxCell>
        <mxCell id="h5dClmg_fXFYLUTbSnwF-121" value="" style="edgeStyle=entityRelationEdgeStyle;fontSize=12;html=1;endArrow=ERoneToMany;startArrow=ERmandOne;rounded=0;entryX=0;entryY=0.5;entryDx=0;entryDy=0;fillColor=#dae8fc;strokeColor=#6c8ebf;" edge="1" parent="1" source="h5dClmg_fXFYLUTbSnwF-107" target="h5dClmg_fXFYLUTbSnwF-123">
          <mxGeometry width="100" height="100" relative="1" as="geometry">
            <mxPoint x="-68" y="478" as="sourcePoint" />
            <mxPoint x="-510" y="350" as="targetPoint" />
          </mxGeometry>
        </mxCell>
        <mxCell id="h5dClmg_fXFYLUTbSnwF-122" value="Patient" style="shape=table;startSize=30;container=1;collapsible=1;childLayout=tableLayout;fixedRows=1;rowLines=0;fontStyle=1;align=center;resizeLast=1;html=1;whiteSpace=wrap;fillColor=#a0522d;strokeColor=#6D1F00;fontColor=#ffffff;" vertex="1" parent="1">
          <mxGeometry x="-205" y="358" width="300" height="120" as="geometry" />
        </mxCell>
        <mxCell id="h5dClmg_fXFYLUTbSnwF-123" value="" style="shape=tableRow;horizontal=0;startSize=0;swimlaneHead=0;swimlaneBody=0;fillColor=#dae8fc;collapsible=0;dropTarget=0;points=[[0,0.5],[1,0.5]];portConstraint=eastwest;top=0;left=0;right=0;bottom=0;html=1;strokeColor=#6c8ebf;" vertex="1" parent="h5dClmg_fXFYLUTbSnwF-122">
          <mxGeometry y="30" width="300" height="30" as="geometry" />
        </mxCell>
        <mxCell id="h5dClmg_fXFYLUTbSnwF-124" value="PK,FK1" style="shape=partialRectangle;connectable=0;fillColor=#dae8fc;top=0;left=0;bottom=0;right=0;fontStyle=1;overflow=hidden;html=1;whiteSpace=wrap;strokeColor=#6c8ebf;" vertex="1" parent="h5dClmg_fXFYLUTbSnwF-123">
          <mxGeometry width="60" height="30" as="geometry">
            <mxRectangle width="60" height="30" as="alternateBounds" />
          </mxGeometry>
        </mxCell>
        <mxCell id="h5dClmg_fXFYLUTbSnwF-125" value="patient_id" style="shape=partialRectangle;connectable=0;fillColor=#dae8fc;top=0;left=0;bottom=0;right=0;align=left;spacingLeft=6;fontStyle=5;overflow=hidden;html=1;whiteSpace=wrap;strokeColor=#6c8ebf;" vertex="1" parent="h5dClmg_fXFYLUTbSnwF-123">
          <mxGeometry x="60" width="120" height="30" as="geometry">
            <mxRectangle width="120" height="30" as="alternateBounds" />
          </mxGeometry>
        </mxCell>
        <mxCell id="h5dClmg_fXFYLUTbSnwF-161" value="integer" style="shape=partialRectangle;connectable=0;fillColor=#dae8fc;top=0;left=0;bottom=0;right=0;align=left;spacingLeft=6;fontStyle=5;overflow=hidden;html=1;whiteSpace=wrap;strokeColor=#6c8ebf;" vertex="1" parent="h5dClmg_fXFYLUTbSnwF-123">
          <mxGeometry x="180" width="120" height="30" as="geometry">
            <mxRectangle width="120" height="30" as="alternateBounds" />
          </mxGeometry>
        </mxCell>
        <mxCell id="h5dClmg_fXFYLUTbSnwF-129" value="" style="shape=tableRow;horizontal=0;startSize=0;swimlaneHead=0;swimlaneBody=0;fillColor=#dae8fc;collapsible=0;dropTarget=0;points=[[0,0.5],[1,0.5]];portConstraint=eastwest;top=0;left=0;right=0;bottom=0;html=1;strokeColor=#6c8ebf;" vertex="1" parent="h5dClmg_fXFYLUTbSnwF-122">
          <mxGeometry y="60" width="300" height="30" as="geometry" />
        </mxCell>
        <mxCell id="h5dClmg_fXFYLUTbSnwF-130" value="" style="shape=partialRectangle;connectable=0;fillColor=#dae8fc;top=0;left=0;bottom=0;right=0;editable=1;overflow=hidden;html=1;whiteSpace=wrap;strokeColor=#6c8ebf;" vertex="1" parent="h5dClmg_fXFYLUTbSnwF-129">
          <mxGeometry width="60" height="30" as="geometry">
            <mxRectangle width="60" height="30" as="alternateBounds" />
          </mxGeometry>
        </mxCell>
        <mxCell id="h5dClmg_fXFYLUTbSnwF-131" value="first_name" style="shape=partialRectangle;connectable=0;fillColor=#dae8fc;top=0;left=0;bottom=0;right=0;align=left;spacingLeft=6;overflow=hidden;html=1;whiteSpace=wrap;strokeColor=#6c8ebf;" vertex="1" parent="h5dClmg_fXFYLUTbSnwF-129">
          <mxGeometry x="60" width="120" height="30" as="geometry">
            <mxRectangle width="120" height="30" as="alternateBounds" />
          </mxGeometry>
        </mxCell>
        <mxCell id="h5dClmg_fXFYLUTbSnwF-162" value="string" style="shape=partialRectangle;connectable=0;fillColor=#dae8fc;top=0;left=0;bottom=0;right=0;align=left;spacingLeft=6;overflow=hidden;html=1;whiteSpace=wrap;strokeColor=#6c8ebf;" vertex="1" parent="h5dClmg_fXFYLUTbSnwF-129">
          <mxGeometry x="180" width="120" height="30" as="geometry">
            <mxRectangle width="120" height="30" as="alternateBounds" />
          </mxGeometry>
        </mxCell>
        <mxCell id="h5dClmg_fXFYLUTbSnwF-132" value="" style="shape=tableRow;horizontal=0;startSize=0;swimlaneHead=0;swimlaneBody=0;fillColor=#dae8fc;collapsible=0;dropTarget=0;points=[[0,0.5],[1,0.5]];portConstraint=eastwest;top=0;left=0;right=0;bottom=0;html=1;strokeColor=#6c8ebf;" vertex="1" parent="h5dClmg_fXFYLUTbSnwF-122">
          <mxGeometry y="90" width="300" height="30" as="geometry" />
        </mxCell>
        <mxCell id="h5dClmg_fXFYLUTbSnwF-133" value="" style="shape=partialRectangle;connectable=0;fillColor=#dae8fc;top=0;left=0;bottom=0;right=0;editable=1;overflow=hidden;html=1;whiteSpace=wrap;strokeColor=#6c8ebf;" vertex="1" parent="h5dClmg_fXFYLUTbSnwF-132">
          <mxGeometry width="60" height="30" as="geometry">
            <mxRectangle width="60" height="30" as="alternateBounds" />
          </mxGeometry>
        </mxCell>
        <mxCell id="h5dClmg_fXFYLUTbSnwF-134" value="last_name" style="shape=partialRectangle;connectable=0;fillColor=#dae8fc;top=0;left=0;bottom=0;right=0;align=left;spacingLeft=6;overflow=hidden;html=1;whiteSpace=wrap;strokeColor=#6c8ebf;" vertex="1" parent="h5dClmg_fXFYLUTbSnwF-132">
          <mxGeometry x="60" width="120" height="30" as="geometry">
            <mxRectangle width="120" height="30" as="alternateBounds" />
          </mxGeometry>
        </mxCell>
        <mxCell id="h5dClmg_fXFYLUTbSnwF-163" value="string" style="shape=partialRectangle;connectable=0;fillColor=#dae8fc;top=0;left=0;bottom=0;right=0;align=left;spacingLeft=6;overflow=hidden;html=1;whiteSpace=wrap;strokeColor=#6c8ebf;" vertex="1" parent="h5dClmg_fXFYLUTbSnwF-132">
          <mxGeometry x="180" width="120" height="30" as="geometry">
            <mxRectangle width="120" height="30" as="alternateBounds" />
          </mxGeometry>
        </mxCell>
        <mxCell id="h5dClmg_fXFYLUTbSnwF-136" value="" style="edgeStyle=entityRelationEdgeStyle;fontSize=12;html=1;endArrow=ERzeroToMany;startArrow=ERmandOne;rounded=0;entryX=0;entryY=0.5;entryDx=0;entryDy=0;fillColor=#dae8fc;strokeColor=#6c8ebf;" edge="1" parent="1" source="h5dClmg_fXFYLUTbSnwF-123" target="h5dClmg_fXFYLUTbSnwF-147">
          <mxGeometry width="100" height="100" relative="1" as="geometry">
            <mxPoint x="-2" y="345" as="sourcePoint" />
            <mxPoint x="98" y="245" as="targetPoint" />
          </mxGeometry>
        </mxCell>
      </root>
    </mxGraphModel>
  </diagram>
</mxfile>
